<svg xmlns="http://www.w3.org/2000/svg" width="31" height="30" viewBox="0 0 31 30"><path d="M29.217 14.216h-9.743c-.952 0-1.43-1.151-.755-1.824l6.889-6.89a.784.784 0 1 0-1.11-1.107l-6.889 6.889c-.673.673-1.824.197-1.824-.757V.784a.784.784 0 1 0-1.569 0v9.743c0 .952-1.151 1.43-1.824.757l-6.89-6.89a.785.785 0 0 0-1.108 1.109l6.888 6.889c.673.673.197 1.824-.755 1.824H.784a.784.784 0 0 0 0 1.569h9.743c.952 0 1.43 1.151.755 1.825l-6.888 6.888a.783.783 0 1 0 1.109 1.108l6.889-6.888c.673-.673 1.824-.197 1.824.755v9.743a.784.784 0 0 0 1.569 0v-9.743c0-.952 1.151-1.43 1.825-.757l6.888 6.89a.785.785 0 0 0 1.11-1.109l-6.89-6.889c-.672-.673-.196-1.824.756-1.824h9.743a.784.784 0 1 0 0-1.569v.001Z"/></svg>